<svg xmlns="http://www.w3.org/2000/svg" xmlns:xlink="http://www.w3.org/1999/xlink" viewBox="0 0 177.76 180.84"><defs><style>.cls-1{fill:url(#linear-gradient);}.cls-2{fill:url(#linear-gradient-2);}.cls-3{fill:url(#linear-gradient-3);}.cls-4{fill:#dcae4e;}.cls-5{fill:url(#linear-gradient-4);}.cls-6{font-size:34.34px;fill:#213864;font-family:Futura-Medium, Futura;font-weight:500;}.cls-7{letter-spacing:0em;}.cls-8{letter-spacing:-0.02em;}</style><linearGradient id="linear-gradient" x1="1398.69" y1="36.91" x2="1465.05" y2="36.91" gradientTransform="matrix(-1, 0, 0, 1, 1512.15, 0)" gradientUnits="userSpaceOnUse"><stop offset="0" stop-color="#dcae4e"/><stop offset="0.39" stop-color="#dcaf50"/><stop offset="0.54" stop-color="#deb257"/><stop offset="0.64" stop-color="#e0b763"/><stop offset="0.73" stop-color="#e3bf74"/><stop offset="0.8" stop-color="#e8c98a"/><stop offset="0.86" stop-color="#edd6a5"/><stop offset="0.92" stop-color="#f4e5c6"/><stop offset="0.98" stop-color="#fbf6eb"/><stop offset="1" stop-color="#fff"/></linearGradient><linearGradient id="linear-gradient-2" x1="1334.39" y1="113.81" x2="1490.06" y2="113.81" gradientTransform="matrix(-1, 0, 0, 1, 1512.15, 0)" gradientUnits="userSpaceOnUse"><stop offset="0" stop-color="#fff"/><stop offset="0.01" stop-color="#fefdfa"/><stop offset="0.08" stop-color="#f6ead2"/><stop offset="0.15" stop-color="#efdaae"/><stop offset="0.23" stop-color="#e9cc90"/><stop offset="0.32" stop-color="#e4c178"/><stop offset="0.43" stop-color="#e1b965"/><stop offset="0.54" stop-color="#deb358"/><stop offset="0.7" stop-color="#dcaf50"/><stop offset="1" stop-color="#dcae4e"/></linearGradient><linearGradient id="linear-gradient-3" x1="1469.06" y1="131.88" x2="1512.15" y2="131.88" gradientTransform="matrix(-1, 0, 0, 1, 1512.15, 0)" gradientUnits="userSpaceOnUse"><stop offset="0" stop-color="#fff"/><stop offset="0.01" stop-color="#f9f9fb"/><stop offset="0.07" stop-color="#ccd1db"/><stop offset="0.13" stop-color="#a3acbf"/><stop offset="0.2" stop-color="#808da6"/><stop offset="0.27" stop-color="#627292"/><stop offset="0.36" stop-color="#4a5d81"/><stop offset="0.45" stop-color="#384c74"/><stop offset="0.56" stop-color="#2b416b"/><stop offset="0.7" stop-color="#233a66"/><stop offset="1" stop-color="#213864"/></linearGradient><linearGradient id="linear-gradient-4" x1="1356.37" y1="70.44" x2="1416.24" y2="70.44" gradientTransform="matrix(-1, 0, 0, 1, 1512.15, 0)" gradientUnits="userSpaceOnUse"><stop offset="0" stop-color="#213864"/><stop offset="0.3" stop-color="#233a66"/><stop offset="0.44" stop-color="#2b416b"/><stop offset="0.55" stop-color="#384c74"/><stop offset="0.64" stop-color="#4a5d81"/><stop offset="0.73" stop-color="#627292"/><stop offset="0.8" stop-color="#808da6"/><stop offset="0.87" stop-color="#a3acbf"/><stop offset="0.93" stop-color="#ccd1db"/><stop offset="0.99" stop-color="#f9f9fb"/><stop offset="1" stop-color="#fff"/></linearGradient></defs><title>treciSVG</title><g id="Layer_2" data-name="Layer 2"><g id="Layer_1-2" data-name="Layer 1"><path class="cls-1" d="M53,72.3a12.08,12.08,0,0,0,5.85,1.51,12.68,12.68,0,0,0,3-.38A12,12,0,0,0,69,68.2c9.91-16.44,16.64-27.46,21.3-35.06l.11-.17.1-.16c.63-1.17,1.36-2.4,2.21-3.67.72-1.09,1.45-2.1,2.16-3a13.2,13.2,0,0,1,3.38-2.61,12.84,12.84,0,0,1,3.28-1.22,11.78,11.78,0,0,1,9.82,2.37c.23.19.45.39.67.59s.37.38.55.57a10.11,10.11,0,0,1,.9,1.17l-.76-1.27-.41-.67h0L100.58,5.64A11.4,11.4,0,0,0,93.82.56h0a12.09,12.09,0,0,0-5.4-.4A11.72,11.72,0,0,0,80,5.61L48.67,57A11,11,0,0,0,53,72.3Z"/><path class="cls-2" d="M22.09,102.92c.15-.19,3.06-3.61,11.6-.84l136.45,43.68a2.79,2.79,0,0,0,1.93-.11c3.68-1.23,4.52-3.8,5.3-6.61a10.41,10.41,0,0,0-1.13-8.27l-.6-1-.57-.95L160,103.77c.07.31.14.62.19.93h0a10.51,10.51,0,0,1-.28,4.62,11.07,11.07,0,0,1-2,3.82,11.65,11.65,0,0,1-3.52,3,14.14,14.14,0,0,1-7.71,1.15c-5.38-.61-45-14.22-98.82-34.07h0l-.9-.31s-4.47-1.12-5-1.14h-.44a11.74,11.74,0,0,0-4.72,1,11.25,11.25,0,0,0-3.53,2.39h0a10.55,10.55,0,0,0-1.61,2.06L24.51,98.77l-.05.09-.17.29Z"/><path class="cls-3" d="M0,144.64a11,11,0,0,0,5.78,9.59,12,12,0,0,0,8.77,1.11,11.65,11.65,0,0,0,7-5.16c12.51-20.73,18.2-30.62,21.37-36.27l.17-.3-12.91-4.5c-8.54-2.76-11.45.66-11.6.85h0l-17,29.16A10.63,10.63,0,0,0,0,144.64Z"/><path class="cls-4" d="M96,41.53c0,.1,0,.2.08.3l0,.06h0v0c0-.08,0-.17,0-.25Z"/><path class="cls-5" d="M96.05,41.67c0,.08,0,.17,0,.25.06.32.14.64.23.95,0,.1.05.2.08.3l0,.06.48.81,1.2,2,19.54,32.44,16.91,28.1a11.13,11.13,0,0,0,6.88,5,11.76,11.76,0,0,0,8.62-1.11,10.91,10.91,0,0,0,5.32-6.59,10.36,10.36,0,0,0-.18-6.26c-.08-.21-.16-.42-.25-.63l-.2-.44v0h0c-.14-.3-.3-.58-.47-.87l-.46-.76L144,78.53l-.06-.09-6.57-10.85L117.3,34.47c-.23-.38-1.53-2.23-1.65-2.33l0,0,0-.05-.34-.31-.18-.15-.18-.15-.2-.15-.16-.12h0l-1.13-.73-.18-.1a3.41,3.41,0,0,0-.33-.17l-.33-.16-.43-.19h0a12,12,0,0,0-10.35.6A10.89,10.89,0,0,0,96.05,41.67Z"/><text class="cls-6" transform="translate(26.79 170.94)"><tspan class="cls-7">A</tspan><tspan x="25.4" y="0">d</tspan><tspan class="cls-8" x="45.99" y="0">v</tspan><tspan x="62.66" y="0">ense</tspan></text></g></g></svg>