<?xml version="1.0" encoding="UTF-8"?>
<svg id="Layer_2" data-name="Layer 2" xmlns="http://www.w3.org/2000/svg" viewBox="0 0 442.94 442.94">
  <defs>
    <style>
      .cls-1 {
        font-family: Sen-Regular, Sen;
        font-size: 72px;
      }

      .cls-1, .cls-2 {
        fill: #fff;
      }

      .cls-3 {
        fill: #f4ba66;
      }

      .cls-4 {
        fill: #ef812f;
      }

      .cls-5 {
        fill: #df4741;
      }

      .cls-6 {
        letter-spacing: 0em;
      }
    </style>
  </defs>
  <g id="Layer_1-2" data-name="Layer 1">
    <g>
      <circle cx="221.47" cy="221.47" r="221.47"/>
      <g>
        <path d="m112.99,271.9c18.94,40.94,60.39,69.34,108.48,69.34s89.54-28.4,108.48-69.34"/>
        <path class="cls-2" d="m112.99,271.9c10.21,20.26,25.97,37.39,44.96,49.2,18.98,11.83,41.22,18.18,63.52,18.14,22.3.04,44.53-6.31,63.52-18.14,18.98-11.82,34.75-28.94,44.96-49.2l-3.58,7.72-4.19,7.43c-1.57,2.37-3.12,4.76-4.72,7.12-1.74,2.25-3.44,4.55-5.22,6.78-7.34,8.75-15.97,16.48-25.56,22.78-9.57,6.35-20.13,11.2-31.14,14.53-11.03,3.29-22.55,4.93-34.06,4.98-11.51-.06-23.03-1.7-34.06-4.99-11.01-3.33-21.57-8.18-31.14-14.53-9.6-6.3-18.22-14.02-25.56-22.77-1.78-2.23-3.49-4.53-5.23-6.78-1.6-2.36-3.15-4.75-4.72-7.12l-4.19-7.43-3.58-7.72Z"/>
      </g>
      <g>
        <path d="m112.38,172.9c18.67-41.65,60.49-70.66,109.09-70.66s90.42,29.01,109.09,70.66"/>
        <path class="cls-2" d="m112.38,172.9l3.53-7.85,4.16-7.55c1.57-2.41,3.11-4.84,4.7-7.24,1.74-2.29,3.44-4.63,5.22-6.9,7.34-8.91,16-16.78,25.66-23.2,9.63-6.47,20.28-11.43,31.4-14.82,11.14-3.36,22.78-5.03,34.42-5.09,11.64.05,23.28,1.73,34.42,5.09,11.12,3.4,21.77,8.35,31.4,14.82,9.66,6.43,18.32,14.29,25.66,23.21,1.78,2.27,3.48,4.61,5.22,6.9,1.6,2.4,3.14,4.83,4.7,7.24l4.16,7.55,3.53,7.85c-10.07-20.6-25.86-38.07-44.97-50.13-19.11-12.08-41.58-18.57-64.12-18.53-22.54-.05-45.01,6.45-64.12,18.53-19.11,12.06-34.91,29.53-44.97,50.13Z"/>
      </g>
    </g>
    <g>
      <text class="cls-1" transform="translate(61.23 243.77)"><tspan x="0" y="0">ETFzur</tspan><tspan class="cls-6" x="239.13" y="0">k</tspan><tspan x="276.75" y="0">a</tspan></text>
      <g>
        <path class="cls-3" d="m225,192.99c0,3.81-2.08,8.84-5.71,10.25-1.71.67-4.27,1.57-7.71.26-4.53-1.73-8.41-4.57-8.41-10.66,0-2.25,2.64-2.98,3.93-5.62,2.21-4.49,3.96-10.57,7.15-10.57,5.06,0,10.74,10.24,10.74,16.33Z"/>
        <path class="cls-5" d="m211.66,203.59s-22.38-6.76-9.29-23.65c0,0-.42,5.35,3.8,6.19,0,0-4.22-7.46,2.25-12.11,6.47-4.64,6.19-12.81,4.36-14.78,0,0,10.64,7.35,7.9,19.43,0,0,2.15-.39,3.13-5.03,0,0,18.23,27.34-7.49,30.48,0,0,9.95-2.35,6.87-15.74,0,0-.7,1.41-2.53,3.1,0,0,.28-4.5-3.1-8.02-3.38-3.52-.99-6.47-.99-6.47,0,0-9.82,13.66-5.46,17.18,0,0-2.23,3.36-3.91-1.29,0,0-1.89,6.06,4.45,10.71Z"/>
        <path class="cls-4" d="m211.93,203.52s-12.38-2.19-7.72-15.93c0,0,1.39,5.5,4.9,6.07,0,0-2.97-7.44,2.4-10.57,5.38-3.13,5.04-10.3,3.52-11.63,0,0,5.42,4.75,3.67,12.81,0,0,2.81.28,3.62-2.84,0,0,13.99,16.64-6.24,22.8,0,0,8.11-2.46,5.42-10.95,0,0-.58.95-2.1,2.09,0,0,.23-3.03-2.57-5.4-2.81-2.37-.68-5.19-.68-5.19,0,0-7.94,6.21-2.91,12.08,0,0-4.24.41-5.65-2.72,0,0-.94,6.26,4.33,9.38Z"/>
        <path class="cls-5" d="m202.77,178.04s-.22-3.69,1.25-5.52c1.18-1.47.87-4.21.87-4.21,0,0,1.99,3.3.44,5.28-1.31,1.67-1.87,1.35-2.56,4.44Z"/>
      </g>
    </g>
  </g>
</svg>